# AST/ASF file generated using VICON BodyLanguage
# -----------------------------------------------
:version 1.10
:name VICON
:units
  mass 1.0
  length 0.45
  angle deg
:documentation
   .ast/.asf automatically generated from VICON data using
   VICON BodyBuilder and BodyLanguage model FoxedUp or BRILLIANT.MOD
:root
   order TX TY TZ RX RY RZ
   axis XYZ
   position 0 0 0  
   orientation 0 0 0 
:bonedata
  begin
     id 1 
     name lhipjoint
     direction 0.521689 -0.742065 0.420928 
     length 2.47002 
     axis 0 0 0  XYZ
  end
  begin
     id 2 
     name lfemur
     direction 0.34202 -0.939693 0  
     length 7.24654  
     axis 0 0 20  XYZ
    dof rx ry rz
    limits (-160.0 20.0)
           (-70.0 70.0)
           (-60.0 70.0)
  end
  begin
     id 3 
     name ltibia
     direction 0.34202 -0.939693 0   
     length 8.04849   
     axis 0 0 20   XYZ
    dof rx
    limits (-10.0 170.0)
  end
  begin
     id 4 
     name lfoot
     direction 0.0745411 -0.2048 0.975961   
     length 1.72367   
     axis -90 7.62852e-016 20   XYZ
    dof rx rz
    limits (-45.0 90.0)
           (-70.0 20.0)
  end
  begin
     id 5 
     name ltoes
     direction 1.53556e-011 -4.21901e-011 1   
     length 0.87311   
     axis -90 7.62852e-016 20   XYZ
    dof rx
    limits (-90.0 20.0)
  end
  begin
     id 6 
     name rhipjoint
     direction -0.52849 -0.738415 0.418857   
     length 2.48223  
     axis 0 0 0  XYZ 
  end
  begin
     id 7 
     name rfemur
     direction -0.34202 -0.939693 0   
     length 7.15571   
     axis 0 0 -20   XYZ
    dof rx ry rz
    limits (-160.0 20.0)
           (-70.0 70.0)
           (-70.0 60.0)
  end
  begin
     id 8 
     name rtibia
     direction -0.34202 -0.939693 0   
     length 7.81659   
     axis 0 0 -20   XYZ
    dof rx
    limits (-10.0 170.0)
 end
 begin
     id 9 
     name rfoot
     direction -0.0917348 -0.252039 0.963359   
     length 1.84382  
     axis -90 -7.62852e-016 -20   XYZ
    dof rx rz
    limits (-45.0 90.0)
           (-20.0 70.0)
  end
  begin
     id 10 
     name rtoes
     direction -1.53551e-011 -4.21879e-011 1   
     length 0.927771   
     axis -90 -7.62852e-016 -20   XYZ
    dof rx
    limits (-90.0 20.0)
  end
  begin
     id 11 
     name lowerback
     direction 0.00583058 0.999822 0.0179296   
     length 2.1429   
     axis 0 0 0   XYZ
    dof rx ry rz
    limits (-20.0 45.0)
           (-30.0 30.0)
           (-30.0 30.0)
  end
  begin
     id 12 
     name upperback
     direction -0.0137999 0.999752 -0.0175071   
     length 2.14252   
     axis 0 0 0   XYZ
    dof rx ry rz
    limits (-20.0 45.0)
           (-30.0 30.0)
           (-30.0 30.0)
  end
  begin
     id 13 
     name thorax
     direction -0.0158036 0.99955 -0.0254909   
     length 2.1383   
     axis 0 0 0   XYZ
    dof rx ry rz
    limits (-20.0 45.0)
           (-30.0 30.0)
           (-30.0 30.0)
  end
  begin
     id 14 
     name lowerneck
     direction -0.0101179 0.999403 -0.0330262   
     length 1.65808   
     axis 0 0 0   XYZ
    dof rx ry rz
    limits (-20.0 45.0)
           (-30.0 30.0)
           (-30.0 30.0)
  end
  begin
     id 15 
     name upperneck
     direction 0.0497734 0.995978 -0.074501   
     length 1.5897   
     axis 0 0 0   XYZ
    dof rx ry rz
    limits (-20.0 45.0)
           (-30.0 30.0)
           (-30.0 30.0)
  end
  begin
     id 16
     name head
     direction 0.0189524 0.999519 -0.0245438  
     length 1.74024  
     axis 0 0 0   XYZ
    dof rx ry rz
    limits (-20.0 45.0)
           (-30.0 30.0)
           (-30.0 30.0)
  end
  begin
     id 17 
     name lclavicle
     direction 0.945604 0.324422 0.0241537  
     length 3.59089  
     axis 0 0 0   XYZ
    dof ry rz
    limits (-20.0 10.0)
           (0.0 20.0)
  end
  begin
     id 18 
     name lhumerus
     direction 1 -4.48964e-011 -2.63524e-027   
     length 5.2391   
     axis 180 -30 -90   XYZ
    dof rx ry rz
    limits (-60.0 90.0)
           (-90.0 90.0)
           (-90.0 90.0)
  end
  begin
     id 19
     name lradius
     direction 1 -4.48969e-011 3.86978e-028   
     length 3.31467   
     axis 180 -30 -90   XYZ
    dof rx
    limits (-10.0 170.0)
  end
  begin
     id 20
     name lwrist
     direction 1 -4.48963e-011 7.20928e-028   
     length 1.65734   
     axis -5.52449e-016 90 90   XYZ
    dof ry
    limits (-180.0 0.0)
 end
  begin
     id 21 
     name lhand
     direction 1 -4.48964e-011 1.44186e-027   
     length 0.9659   
     axis -9.20027e-016 90 90   XYZ
    dof rx rz
    limits (-90.0 90.0)
           (-45.0 45.0)
  end
  begin
     id 22 
     name lfingers
     direction 1 -4.48965e-011 2.88371e-027   
     length 0.778733   
     axis -1.84005e-015 90 90   XYZ
    dof rx
    limits (0.0 90.0)
  end
  begin
     id 23
     name lthumb
     direction 0.707107 -6.34931e-011 0.707107   
     length 1.11811   
     axis -90 45 2.85299e-015   XYZ
    dof rx rz
    limits (-45.0 45.0)
           (-45.0 45.0)
  end
  begin
     id 24 
     name rclavicle
     direction -0.923762 0.370785 0.0958234   
     length 3.54196  
     axis 0 0 0   XYZ 
    dof ry rz
    limits (-10.0 20.0)
           (-20.0 0.0)
  end
  begin
     id 25 
     name rhumerus
     direction -1 -4.48966e-011 1.18702e-017  
     length 5.30252   
     axis 180 30 90   XYZ
    dof rx ry rz
    limits (-90.0 60.0)
           (-90.0 90.0)
           (-90.0 90.0)
  end
  begin
     id 26 
     name rradius
     direction -1 -4.48966e-011 4.46736e-027   
     length 3.67875   
     axis 180 30 90   XYZ
    dof rx
    limits (-10.0 170.0)
  end
  begin
     id 27 
     name rwrist
     direction -1 -4.48966e-011 7.20928e-028   
     length 1.83937   
     axis -5.52449e-016 -90 -90   XYZ
    dof ry
    limits (-180.0 0.0)
  end
  begin
     id 28
     name rhand
     direction -1 -4.48973e-011 1.44186e-027   
     length 0.594811   
     axis -9.20027e-016 -90 -90   XYZ
    dof rx rz
    limits (-90.0 90.0)
           (-45.0 45.0)
  end
  begin
     id 29
     name rfingers
     direction -1 -4.48963e-011 2.88371e-027   
     length 0.479552   
     axis -1.84005e-015 -90 -90   XYZ
    dof rx
    limits (0.0 90.0)
  end
  begin
     id 30
     name rthumb
     direction -0.707107 -6.34932e-011 0.707107   
     length 0.688544   
     axis -90 -45 -2.85299e-015   XYZ
    dof rx rz
    limits (-45.0 45.0)
           (-45.0 45.0)
  end
:hierarchy
  begin
    root lhipjoint rhipjoint lowerback
    lhipjoint lfemur
    lfemur ltibia
    ltibia lfoot
    lfoot ltoes
    rhipjoint rfemur
    rfemur rtibia
    rtibia rfoot
    rfoot rtoes
    lowerback upperback
    upperback thorax
    thorax lowerneck lclavicle rclavicle
    lowerneck upperneck
    upperneck head
    lclavicle lhumerus
    lhumerus lradius
    lradius lwrist
    lwrist lhand lthumb
    lhand lfingers
    rclavicle rhumerus
    rhumerus rradius
    rradius rwrist
    rwrist rhand rthumb
    rhand rfingers
  end

#!OML:ASF E:\acrobat2\Project_11_07_03\Capture day 1\Session 1\Acrobat.ASF
:FULLY-SPECIFIED
:DEGREES
950
root 10.5855 26.6909 14.2532 8.03716 -12.3064 9.97621
lowerback 15.7734 1.1806 10.3376
upperback 7.37907 3.00338 4.5172
thorax -0.622437 1.62375 -1.50321
lowerneck 0.077026 -3.23225 -3.02134
upperneck 13.7385 -3.4899 -6.30791
head 4.46916 -2.13923 -1.73566
rclavicle 0 2.22639e-014
rhumerus 31.1905 16.7168 -66.136
rradius 31.8738
rwrist 3.70585
rhand -19.1903 -18.5887
rfingers 7.12502
rthumb 7.12147 -48.4489
lclavicle 0 2.22639e-014
lhumerus 16.5131 31.3639 19.8388
lradius 78.7468
lwrist 0.407235
lhand -47.3798 -50.0391
lfingers 7.12502
lthumb -20.0724 -21.0559
rfemur -43.3871 -14.2907 13.181
rtibia 53.2796
rfoot -17.5424 -14.5093
rtoes -14.296
lfemur -42.0221 2.975 -22.667
ltibia 48.0097
lfoot 9.5202 -11.0356
ltoes 40.9847
951
root 10.5521 26.6797 14.3056 8.07251 -11.5724 9.69636
lowerback 15.8631 1.12595 10.3247
upperback 7.49305 2.94077 4.84053
thorax -0.571966 1.59173 -1.14539
lowerneck 0.0967825 -3.48986 -3.12021
upperneck 14.0414 -3.82976 -6.17789
head 4.57451 -2.31035 -1.69565
rclavicle 4.29375e-014 4.13472e-014
rhumerus 30.7568 15.5552 -66.183
rradius 31.7898
rwrist 1.84364
rhand -19.6666 -19.6599
rfingers 7.12502
rthumb 6.66168 -49.5351
lclavicle 4.29375e-014 4.13472e-014
lhumerus 17.8228 31.2913 19.902
lradius 77.6938
lwrist -0.256947
lhand -47.9149 -50.2115
lfingers 7.12502
lthumb -20.5866 -21.2831
rfemur -43.7338 -14.849 13.921
rtibia 53.4384
rfoot -16.7518 -14.9374
rtoes -13.2476
lfemur -43.4459 3.28293 -23.073
ltibia 50.8041
lfoot 10.3498 -11.8049
ltoes 41.8235
952
root 10.518 26.676 14.363 8.09653 -10.92 9.39506
lowerback 15.9294 1.04856 10.2831
upperback 7.60046 2.84167 5.15212
thorax -0.519633 1.54092 -0.777815
lowerneck 0.178894 -3.65858 -3.29587
upperneck 14.3379 -4.05368 -6.02577
head 4.67139 -2.42646 -1.62889
rclavicle 5.08889e-014 8.26944e-014
rhumerus 30.23 14.7563 -66.1013
rradius 31.8776
rwrist -0.658565
rhand -20.5141 -20.6983
rfingers 7.12502
rthumb 5.84346 -50.5977
lclavicle 5.08889e-014 8.26944e-014
lhumerus 19.0283 31.2063 19.8669
lradius 76.7294
lwrist -0.811259
lhand -48.3247 -50.5673
lfingers 7.12502
lthumb -20.9803 -21.682
rfemur -44.0385 -15.3318 14.6398
rtibia 53.4894
rfoot -15.9234 -15.2682
rtoes -11.6159
lfemur -44.6002 3.48396 -23.4718
ltibia 53.1705
lfoot 10.8709 -12.5996
ltoes 42.1423
953
root 10.485 26.6809 14.4264 8.09299 -10.3623 9.11989
lowerback 15.9824 0.979867 10.2704
upperback 7.70508 2.75415 5.38304
thorax -0.454754 1.49838 -0.512242
lowerneck 0.308615 -3.78411 -3.44488
upperneck 14.6406 -4.23029 -5.81547
head 4.76371 -2.51463 -1.54401
rclavicle -2.06736e-014 -2.8625e-014
rhumerus 29.5749 14.11 -65.9913
rradius 32.0592
rwrist -3.40303
rhand -21.6224 -21.5484
rfingers 7.12502
rthumb 4.77339 -51.4746
lclavicle -2.06736e-014 -2.8625e-014
lhumerus 20.2719 31.0586 19.8093
lradius 75.8349
lwrist -1.24154
lhand -48.6248 -51.1539
lfingers 7.12502
lthumb -21.2686 -22.3009
rfemur -44.2654 -15.7594 15.2635
rtibia 53.3866
rfoot -15.0126 -15.5085
rtoes -9.40843
lfemur -45.4003 3.56949 -23.9138
ltibia 54.9562
lfoot 11.0329 -13.3914
ltoes 42.3228
954
root 10.4548 26.6951 14.4962 8.06172 -9.90453 8.89464
lowerback 16.0113 0.867875 10.2221
upperback 7.81072 2.60084 5.57768
thorax -0.380581 1.42337 -0.254608
lowerneck 0.467983 -3.80581 -3.70322
upperneck 14.9694 -4.2676 -5.57926
head 4.86715 -2.53985 -1.42602
rclavicle -5.08889e-014 -9.85972e-014
rhumerus 28.8905 13.758 -65.8711
rradius 32.2649
rwrist -5.96716
rhand -22.7794 -22.1178
rfingers 7.12502
rthumb 3.65616 -52.0662
lclavicle -5.08889e-014 -9.85972e-014
lhumerus 21.212 30.9072 19.6356
lradius 75.1214
lwrist -1.53877
lhand -48.8091 -51.9556
lfingers 7.12502
lthumb -21.4457 -23.1226
rfemur -44.3904 -16.1487 15.7538
rtibia 53.0749
rfoot -13.9263 -15.6872
rtoes -6.95477
lfemur -45.7983 3.54069 -24.4221
ltibia 56.0591
lfoot 10.678 -14.1576
ltoes 42.497
955
root 10.4278 26.7189 14.5728 8.01238 -9.54945 8.73275
lowerback 16.0151 0.756483 10.1862
upperback 7.91377 2.44475 5.70158
thorax -0.290731 1.34906 -0.0775047
lowerneck 0.507058 -3.77916 -3.89177
upperneck 15.818 -4.19484 -5.48594
head 4.63819 -2.5416 -1.20933
rclavicle -1.11319e-014 2.54444e-014
rhumerus 28.1587 13.4762 -65.7925
rradius 32.4113
rwrist -7.98292
rhand -23.742 -22.3848
rfingers 7.12502
rthumb 2.72648 -52.3471
lclavicle -1.11319e-014 2.54444e-014
lhumerus 22.0507 30.7224 19.4976
lradius 74.5592
lwrist -1.69919
lhand -48.8783 -52.9946
lfingers 7.12502
lthumb -21.5122 -24.1692
rfemur -44.4047 -16.5072 16.0912
rtibia 52.5219
rfoot -12.6065 -15.8037
rtoes -4.64574
lfemur -45.7797 3.41095 -25.0055
ltibia 56.4226
lfoot 9.57042 -14.8837
ltoes 42.4083
956
root 10.4041 26.7518 14.6559 7.95729 -9.28697 8.61011
lowerback 15.9967 0.678515 10.2191
upperback 8.01076 2.33668 5.74925
thorax -0.18388 1.30216 -0.0254557
lowerneck 0.542404 -3.75369 -3.96902
upperneck 16.3085 -4.15865 -5.29662
head 4.79054 -2.52871 -1.14486
rclavicle 1.59028e-014 2.22639e-014
rhumerus 27.3734 13.0999 -65.7773
rradius 32.4384
rwrist -9.21132
rhand -24.3236 -22.3907
rfingers 7.12502
rthumb 2.16485 -52.3595
lclavicle 1.59028e-014 2.22639e-014
lhumerus 22.9455 30.5017 19.5366
lradius 74.175
lwrist -1.75985
lhand -48.8376 -54.1656
lfingers 7.12502
lthumb -21.473 -25.3358
rfemur -44.3086 -16.8457 16.3139
rtibia 51.7512
rfoot -11.0855 -15.8262
rtoes -2.75007
lfemur -45.3542 3.18874 -25.6173
ltibia 56.0295
lfoot 7.54699 -15.4781
ltoes 41.7552
